<svg width="93" height="94" viewBox="0 0 93 94" fill="none" xmlns="http://www.w3.org/2000/svg">
<path d="M29.4378 92.1927C30.5801 92.7527 31.9655 92.5322 32.8782 91.6194L36.6019 87.8958C36.7732 87.7245 36.9229 87.5329 37.0482 87.3255L43.6507 76.3948C44.0397 75.7509 44.9736 75.7509 45.3626 76.3948L54.0804 90.8265L54.1634 90.9564C55.0499 92.2691 56.8183 92.6723 58.1917 91.848L75.1761 81.6526L75.3304 81.553C75.4817 81.4491 75.6232 81.3314 75.7532 81.2015L79.3968 77.5579L79.5784 77.3587C80.38 76.3993 80.5015 75.0384 79.8821 73.9524L79.7376 73.7239L73.0696 64.138C72.6061 63.4713 73.0887 62.5597 73.9007 62.5677L84.1673 62.6683C84.973 62.6761 85.7479 62.3591 86.3177 61.7894L90.138 57.969C90.7005 57.4065 91.0168 56.6435 91.0169 55.848L91.0169 34.3773C91.0168 32.709 89.6557 31.361 87.9876 31.3773L70.3646 31.5511C69.5524 31.5591 69.0697 30.6465 69.5335 29.9798L79.472 15.6927C80.4633 14.2675 80.0415 12.3011 78.553 11.4075L62.8206 1.96319C61.714 1.29908 60.3165 1.42066 59.3441 2.24053L59.1556 2.41436L55.428 6.14092C55.2603 6.30867 55.1132 6.4961 54.9896 6.69854L48.3968 17.4915C48.0069 18.1298 47.0796 18.1298 46.6898 17.4915L37.9544 3.18975C37.0955 1.78344 35.2628 1.33284 33.8499 2.18096L16.8577 12.3812C16.7002 12.4757 16.5518 12.5848 16.4144 12.7063L16.2806 12.8323L12.637 16.4759C11.6103 17.5029 11.467 19.1177 12.2962 20.3099L18.9632 29.8958C19.4269 30.5624 18.945 31.4748 18.1331 31.4671L7.86652 31.3665C7.11116 31.3591 6.3831 31.6367 5.8255 32.1409L5.71613 32.2444L1.89582 36.0647C1.33328 36.6273 1.01699 37.3903 1.01691 38.1858L1.01691 59.6565C1.01704 61.3247 2.37808 62.6728 4.0462 62.6565L21.6693 62.4827C22.4814 62.4747 22.9641 63.3873 22.5003 64.054L12.5618 78.3411C11.5705 79.7663 11.9923 81.7327 13.4808 82.6263L29.2132 92.0706L29.4378 92.1927Z" fill="#1E40AF" stroke="#1E40AF" stroke-width="2"/>
<path d="M58.1526 84.3014C59.63 86.4898 62.5781 87.1618 64.8674 85.7878L76.6848 78.693C79.1656 77.2038 79.8683 73.9267 78.2161 71.5514L71.7112 62.1999C70.3201 60.1998 71.7672 57.4631 74.2034 57.487L85.9338 57.6022C88.7141 57.6294 90.9825 55.3836 90.9827 52.6032L90.9827 36.363C90.9825 33.5826 88.7141 31.3368 85.9338 31.3639L74.2034 31.4792C71.7672 31.503 70.3201 28.7664 71.7112 26.7663L78.2161 17.4147C79.8683 15.0395 79.1656 11.7623 76.6848 10.2731L64.8508 3.16863C62.4962 1.75515 59.4416 2.50561 58.01 4.84929L51.0432 16.2555C49.8735 18.1702 47.0918 18.1702 45.9221 16.2555L38.9553 4.84929C37.5237 2.50561 34.4692 1.75515 32.1145 3.16863L20.2805 10.2731C17.7998 11.7623 17.097 15.0394 18.7493 17.4147L25.2542 26.7663L25.3762 26.9557C26.5539 28.9346 25.1221 31.5023 22.762 31.4792L11.0315 31.3639C8.25124 31.3368 5.98283 33.5826 5.98267 36.363L5.98267 52.6032C5.98284 55.3836 8.25125 57.6294 11.0315 57.6022L22.762 57.487C25.1982 57.4631 26.6452 60.1998 25.2542 62.1999L18.7493 71.5514C17.097 73.9267 17.7998 77.2038 20.2805 78.693L32.0979 85.7878L32.3215 85.9137C34.651 87.1564 37.571 86.3711 38.9514 84.0856L45.9143 72.5563C47.0812 70.6243 49.8841 70.6243 51.051 72.5563L58.0139 84.0856L58.1526 84.3014Z" fill="#3B82F6" stroke="#1E40AF" stroke-width="2"/>
<path d="M50.4647 51.28C48.9212 51.28 47.9594 52.9544 48.7372 54.2877L52.7786 61.2159C53.2316 61.9924 54.1513 62.3823 54.9988 62.0823C57.2564 61.2832 59.2956 60.0574 61.1164 58.405C62.5946 57.0635 63.8017 55.5533 64.7377 53.8744C65.4134 52.6624 64.4536 51.28 63.066 51.28L50.4647 51.28ZM43.5255 49.588C42.7499 48.2573 40.8243 48.2659 40.0607 49.6036L36.122 56.5035C35.6716 57.2925 35.8026 58.295 36.5004 58.8767C37.9134 60.0547 39.4937 61.0224 41.2414 61.78C43.4764 62.7487 45.8902 63.2331 48.4827 63.2331C48.8889 63.2331 49.3577 63.2093 49.8889 63.1618V63.1618C50.5839 63.0997 50.957 62.3381 50.6056 61.7353L43.5255 49.588ZM31.9036 39.7956C30.9859 39.7956 30.1766 40.4189 30.0176 41.3227C29.9728 41.5776 29.9321 41.8342 29.8958 42.0925C29.7858 42.8737 29.7314 43.6706 29.7327 44.4831C29.7327 46.7018 30.092 48.7956 30.8108 50.7643C31.193 51.8114 31.6592 52.8098 32.2094 53.7596C32.9127 54.9737 34.6128 54.8503 35.3157 53.6359L41.5889 42.7975C42.3607 41.4641 41.3985 39.7956 39.858 39.7956L31.9036 39.7956ZM44.2303 27.7636C43.7799 26.9803 42.8558 26.5852 42.004 26.8869C39.7477 27.6861 37.7041 28.9109 35.8733 30.5612C34.385 31.9028 33.1709 33.413 32.231 35.092C31.553 36.3031 32.5126 37.6862 33.9006 37.6862L46.4787 37.6862C48.0168 37.6862 48.9792 36.0226 48.2125 34.6893L44.2303 27.7636ZM48.4827 25.7331C48.0139 25.7331 47.537 25.7643 47.052 25.8268V25.8268C46.3908 25.912 46.0361 26.6435 46.3713 27.2198L53.4407 39.3735C54.2155 40.7056 56.1424 40.6978 56.9064 39.3594L60.8434 32.4626C61.2937 31.6736 61.1627 30.6712 60.4649 30.0894C59.0522 28.9115 57.4725 27.9437 55.7258 27.1862C53.492 26.2175 51.0777 25.7331 48.4827 25.7331ZM64.7448 35.3141C64.0529 34.0678 62.3222 34.1683 61.6081 35.402L55.3764 46.1687C54.6047 47.502 55.5668 49.1706 57.1074 49.1706L65.0617 49.1706C65.9795 49.1706 66.7887 48.5473 66.9477 47.6434C66.9926 47.3886 67.0332 47.132 67.0695 46.8737C67.1795 46.0925 67.2339 45.2956 67.2327 44.4831C67.2327 42.2956 66.8502 40.2018 66.0852 38.2018C65.697 37.1869 65.2502 36.2243 64.7448 35.3141Z" fill="white"/>
</svg>
